<svg width="20" height="21" viewBox="0 0 20 21" fill="none" xmlns="http://www.w3.org/2000/svg">
    <path fill-rule="evenodd" clip-rule="evenodd" d="M10 18.8334C14.6024 18.8334 18.3333 15.1024 18.3333 10.5C18.3333 5.89765 14.6024 2.16669 10 2.16669C5.39763 2.16669 1.66667 5.89765 1.66667 10.5C1.66667 15.1024 5.39763 18.8334 10 18.8334ZM12.2097 9.3764C12.4538 9.13232 12.4538 8.73659 12.2097 8.49251C11.9656 8.24843 11.5699 8.24843 11.3258 8.49251L9.99999 9.81834L8.67417 8.49251C8.43009 8.24844 8.03436 8.24844 7.79028 8.49251C7.5462 8.73659 7.5462 9.13232 7.79028 9.3764L9.11611 10.7022L7.79028 12.028C7.5462 12.2721 7.5462 12.6679 7.79028 12.9119C8.03436 13.156 8.43009 13.156 8.67417 12.9119L9.99999 11.5861L11.3258 12.9119C11.5699 13.156 11.9656 13.156 12.2097 12.9119C12.4538 12.6679 12.4538 12.2721 12.2097 12.028L10.8839 10.7022L12.2097 9.3764Z" fill="#BDC8D3"/>
</svg>
